<?xml version="1.0" standalone="no"?>
<!DOCTYPE svg PUBLIC "-//W3C//DTD SVG 20010904//EN"
 "http://www.w3.org/TR/2001/REC-SVG-20010904/DTD/svg10.dtd">
<svg version="1.0" xmlns="http://www.w3.org/2000/svg"
 width="231.000000pt" height="218.000000pt" viewBox="0 0 231.000000 218.000000"
 preserveAspectRatio="xMidYMid meet">

<g transform="translate(0.000000,218.000000) scale(0.100000,-0.100000)"
fill="#000000" stroke="none">
<path d="M514 2170 c-24 -9 -44 -57 -44 -104 0 -59 31 -162 79 -261 l47 -100
-28 -78 c-15 -43 -40 -135 -54 -205 -14 -70 -32 -151 -42 -180 -18 -60 -9 -77
37 -65 20 5 23 3 18 -11 -19 -50 -19 -64 3 -76 12 -7 30 -10 40 -7 13 3 31 -9
58 -42 22 -26 63 -65 90 -86 l50 -38 -44 -68 c-45 -70 -92 -170 -114 -246 -7
-23 -17 -40 -22 -36 -6 3 -23 26 -39 52 l-29 46 6 142 c7 139 7 143 -19 195
-76 156 -297 174 -424 36 -57 -63 -77 -104 -77 -165 -1 -44 3 -57 25 -79 33
-33 94 -42 136 -21 16 9 49 45 72 81 48 73 62 82 99 63 l27 -13 -4 -131 c-3
-142 7 -184 64 -259 25 -33 22 -51 -5 -33 -8 5 -38 9 -67 9 -44 0 -56 -4 -81
-30 -43 -42 -57 -111 -42 -198 20 -116 90 -203 194 -239 47 -17 109 -18 846
-18 l795 0 55 22 c30 13 73 40 94 60 102 99 126 294 46 375 -23 22 -37 28 -74
28 -24 0 -56 -4 -70 -9 -21 -8 -27 -6 -41 15 -19 30 -98 68 -126 61 -15 -4
-21 5 -35 52 -23 81 -86 208 -137 278 l-45 60 67 67 c57 57 72 66 103 66 51 0
66 21 45 66 l-17 35 35 -7 c46 -8 53 10 31 79 -9 29 -28 112 -42 186 -14 73
-34 157 -45 187 l-20 54 55 113 c95 190 106 320 32 356 -26 12 -42 12 -122 -2
-50 -9 -143 -32 -205 -51 l-113 -34 -39 19 c-135 69 -323 76 -492 17 l-61 -20
-89 30 c-109 38 -249 72 -290 71 -16 0 -40 -4 -51 -9z m188 -34 c51 -14 126
-37 166 -52 l72 -26 83 27 c154 51 328 44 464 -19 l51 -24 107 34 c133 42 267
68 311 60 83 -16 64 -172 -47 -375 l-41 -73 25 -77 c14 -42 35 -128 47 -191
12 -63 29 -139 38 -167 8 -29 12 -56 8 -60 -4 -4 -21 -2 -38 5 -40 15 -45 9
-29 -31 27 -67 27 -67 -18 -67 -38 0 -47 -6 -109 -68 -113 -115 -201 -165
-357 -203 -122 -31 -306 -31 -418 -1 -128 35 -250 104 -340 194 -61 61 -84 78
-107 78 -39 0 -42 10 -23 59 19 49 14 58 -27 41 -17 -7 -34 -10 -37 -6 -4 3 1
30 10 59 9 28 27 109 41 179 15 70 39 160 55 200 l29 73 -39 77 c-81 161 -110
303 -73 356 21 30 75 29 196 -2z m-282 -1060 c82 -54 110 -143 90 -292 -14
-103 -6 -143 36 -193 l24 -29 -23 -6 c-13 -3 -39 -16 -59 -30 l-35 -24 -34 56
-34 56 0 149 c0 135 -2 150 -19 163 -19 14 -38 18 -63 15 -7 -1 -13 8 -13 21
-1 39 -37 107 -65 120 -42 19 -9 29 77 25 63 -3 84 -9 118 -31z m1323 -176
c41 -49 94 -141 126 -220 50 -127 50 -123 -11 -158 -47 -27 -132 -102 -115
-102 3 0 35 22 71 49 106 81 164 88 232 29 l34 -30 -19 -27 c-31 -44 -62 -112
-59 -128 2 -9 19 15 38 52 40 78 78 108 141 108 145 0 146 -282 0 -388 -92
-67 -79 -66 -941 -63 l-775 3 -53 24 c-134 61 -208 235 -152 359 25 54 69 76
124 61 51 -14 83 -45 115 -113 15 -33 31 -54 34 -49 6 10 -29 89 -63 140 -13
20 -12 24 10 48 13 14 41 30 62 37 49 15 110 -8 185 -69 30 -25 57 -42 60 -39
10 9 -69 76 -121 103 -45 23 -48 27 -42 54 15 77 113 277 150 308 12 10 26 6
73 -17 197 -100 444 -116 663 -42 83 28 174 72 185 91 10 15 22 10 48 -21z"/>
<path d="M555 2060 c-13 -41 32 -189 76 -249 41 -58 70 -56 105 7 15 26 40 66
56 89 15 23 28 51 28 62 0 26 -57 63 -139 91 -79 26 -118 26 -126 0z"/>
<path d="M1830 2044 c-30 -8 -75 -27 -100 -42 -57 -35 -62 -63 -22 -123 16
-24 41 -63 56 -86 37 -60 66 -59 107 5 38 59 71 168 67 218 -3 33 -7 39 -28
41 -14 1 -50 -5 -80 -13z"/>
<path d="M824 1516 c-29 -29 -34 -41 -34 -79 0 -108 124 -161 200 -85 38 38
47 85 25 132 -21 44 -59 66 -116 66 -33 0 -47 -6 -75 -34z m146 -36 c13 -24
-2 -60 -25 -60 -8 0 -19 9 -25 20 -13 24 2 60 25 60 8 0 19 -9 25 -20z m-100
-80 c0 -21 -15 -27 -25 -10 -7 12 2 30 16 30 5 0 9 -9 9 -20z"/>
<path d="M1479 1522 c-24 -21 -32 -38 -35 -72 -8 -76 41 -133 114 -133 82 0
137 75 113 154 -24 79 -129 107 -192 51z m59 -34 c28 -28 -3 -83 -33 -58 -8 7
-15 20 -15 29 0 17 18 41 30 41 3 0 11 -5 18 -12z m82 -94 c0 -16 -16 -19 -25
-4 -8 13 4 32 16 25 5 -4 9 -13 9 -21z"/>
<path d="M1166 1379 c-14 -11 -26 -29 -26 -39 0 -20 44 -60 66 -60 24 0 17
-66 -8 -84 -46 -33 -118 -10 -118 37 0 9 -4 17 -10 17 -5 0 -10 -9 -10 -20 0
-25 46 -70 70 -70 12 0 19 -11 24 -37 7 -44 39 -101 61 -109 47 -18 88 25 101
104 5 31 12 42 30 46 29 8 57 48 51 73 -4 17 -5 16 -12 -2 -23 -57 -81 -73
-123 -35 -28 26 -31 80 -4 80 32 0 62 29 62 60 0 18 -8 34 -22 44 -32 23 -100
20 -132 -5z m84 -9 c12 -8 12 -10 -3 -16 -9 -3 -25 -3 -34 0 -15 6 -15 8 -3
16 8 6 17 10 20 10 3 0 12 -4 20 -10z"/>
<path d="M1150 971 c0 -20 53 -51 87 -51 37 0 97 35 87 51 -3 5 -17 0 -31 -11
-33 -26 -83 -26 -117 1 -14 11 -26 16 -26 10z"/>
<path d="M1010 777 c0 -1 9 -35 20 -76 28 -100 52 -142 121 -217 32 -35 59
-68 59 -74 0 -5 -11 -17 -25 -26 -40 -26 -165 -16 -237 19 -76 37 -157 120
-203 209 -21 40 -40 67 -43 60 -7 -22 53 -124 111 -188 78 -85 162 -127 264
-133 80 -4 127 10 144 40 13 25 -1 50 -71 125 -55 60 -94 139 -115 232 -3 17
-11 32 -16 32 -5 0 -9 -1 -9 -3z"/>
<path d="M1491 727 c-18 -83 -63 -168 -125 -234 -70 -76 -74 -106 -19 -130 27
-11 59 -14 113 -11 147 9 273 106 359 276 12 24 20 47 17 50 -8 7 -6 9 -51
-73 -47 -85 -123 -164 -196 -201 -92 -47 -259 -46 -259 2 0 9 23 41 51 72 58
64 101 143 123 229 19 71 19 73 8 73 -5 0 -14 -24 -21 -53z"/>
<path d="M320 385 c0 -29 28 -45 40 -24 11 17 -6 49 -25 49 -9 0 -15 -10 -15
-25z"/>
<path d="M2177 403 c-4 -3 -7 -17 -7 -30 0 -35 34 -26 38 10 3 26 -14 37 -31
20z"/>
<path d="M390 382 c0 -10 5 -23 12 -30 16 -16 37 3 31 28 -7 25 -43 27 -43 2z"/>
<path d="M2104 385 c-9 -23 3 -45 21 -39 20 8 20 54 0 54 -9 0 -18 -7 -21 -15z"/>
<path d="M284 347 c-8 -21 1 -47 16 -47 19 0 23 31 7 48 -15 14 -17 14 -23 -1z"/>
<path d="M2220 346 c-14 -18 -6 -50 13 -44 15 6 22 37 10 49 -6 6 -15 4 -23
-5z"/>
<path d="M352 308 c-7 -7 -12 -29 -12 -50 0 -68 63 -103 96 -53 37 56 -38 149
-84 103z"/>
<path d="M2112 297 c-26 -27 -30 -88 -7 -107 25 -20 64 -3 82 36 16 32 16 38
2 62 -19 35 -49 39 -77 9z"/>
</g>
</svg>
