<?xml version="1.0" standalone="no"?>
<!DOCTYPE svg PUBLIC "-//W3C//DTD SVG 20010904//EN"
 "http://www.w3.org/TR/2001/REC-SVG-20010904/DTD/svg10.dtd">
<svg version="1.0" xmlns="http://www.w3.org/2000/svg"
 width="512.000000pt" height="512.000000pt" viewBox="0 0 512.000000 512.000000"
 preserveAspectRatio="xMidYMid meet">

<g transform="translate(0.000000,512.000000) scale(0.100000,-0.100000)"
fill="#000000" stroke="none">
<path d="M2375 4254 c-27 -2 -117 -11 -200 -20 -115 -13 -268 -17 -650 -19
-488 -2 -671 -10 -925 -40 -171 -21 -383 -56 -396 -67 -7 -5 -8 -24 -3 -56 31
-200 133 -352 322 -481 51 -35 186 -100 250 -121 33 -10 38 -15 33 -34 -57
-194 -74 -340 -57 -495 25 -230 92 -393 238 -574 35 -43 63 -79 63 -81 0 -2
-25 -14 -55 -26 -31 -13 -53 -25 -51 -28 3 -3 39 1 79 8 l74 12 59 -47 c33
-26 60 -51 62 -55 1 -4 -38 -44 -88 -90 -50 -45 -89 -85 -86 -87 4 -5 178 83
233 118 19 12 34 7 140 -43 169 -80 289 -119 477 -157 54 -11 100 -22 103 -25
3 -2 -13 -34 -36 -71 -121 -201 -179 -469 -137 -635 38 -153 138 -282 271
-352 135 -70 260 -86 570 -70 217 11 278 26 387 92 l68 40 72 -61 c359 -301
871 -431 1238 -313 144 46 294 143 381 247 50 59 49 66 -31 185 -101 151 -239
265 -388 319 -248 91 -552 66 -992 -82 -57 -19 -104 -35 -104 -35 -1 0 -1 57
-2 127 0 106 -5 144 -26 223 -32 113 -86 247 -133 325 -22 36 -30 57 -22 59 7
2 72 16 145 30 169 34 317 82 461 151 73 35 118 52 125 46 25 -20 219 -122
224 -117 3 3 -34 43 -82 88 l-87 83 71 53 71 53 60 -12 c33 -6 62 -9 65 -6 3
3 -15 14 -40 26 -25 11 -46 23 -46 26 0 4 26 36 59 72 99 110 175 256 223 431
19 66 22 104 22 267 0 175 -2 198 -27 289 -15 55 -25 102 -22 105 3 2 36 17
74 31 192 75 347 198 437 347 59 98 108 289 81 311 -18 15 -255 49 -462 66
-279 24 -608 36 -985 37 -232 0 -389 5 -480 15 -132 14 -526 26 -625 18z m38
-211 c8 -271 53 -454 121 -498 24 -16 28 -16 52 0 68 44 112 226 121 498 3
103 9 187 12 187 3 0 16 -3 29 -6 21 -6 22 -11 22 -113 0 -181 42 -390 82
-415 50 -30 92 105 111 347 l11 158 26 -6 c14 -3 194 -10 400 -15 450 -10 603
-16 860 -36 202 -15 466 -46 557 -65 52 -10 52 -11 46 -42 -43 -230 -246 -428
-536 -526 -82 -28 -82 -28 -81 -62 0 -19 13 -74 29 -124 24 -78 28 -111 32
-246 4 -122 2 -175 -11 -238 -37 -183 -121 -352 -237 -475 l-59 -64 -74 29
c-71 28 -216 50 -216 34 0 -4 8 -14 18 -22 27 -22 155 -83 174 -83 33 0 27
-17 -18 -50 l-46 -33 -59 18 c-33 10 -62 16 -65 12 -3 -3 6 -22 21 -41 l28
-36 -99 -46 c-288 -135 -667 -204 -1113 -204 -454 0 -812 65 -1107 201 -46 21
-84 42 -84 47 0 4 11 23 25 42 14 19 25 37 25 42 0 4 -30 -3 -67 -17 l-66 -24
-43 30 c-24 16 -46 33 -49 38 -3 5 18 16 47 25 58 17 178 84 178 99 0 20 -149
-2 -221 -33 -39 -16 -75 -27 -80 -24 -19 11 -104 107 -137 153 -179 248 -229
625 -122 928 11 31 20 63 20 69 0 6 -43 27 -97 45 -165 57 -316 154 -399 258
-56 71 -110 178 -128 259 -16 71 -26 62 89 82 287 47 638 71 1220 80 286 5
536 12 555 15 l36 7 11 -159 c19 -242 61 -377 111 -347 40 25 82 234 82 415 0
58 3 109 7 112 3 4 16 7 28 7 22 0 22 -3 28 -187z m-174 -2223 c188 -18 550
-13 801 13 21 2 30 -9 72 -93 59 -115 103 -250 126 -381 14 -83 14 -109 4
-171 -32 -190 -174 -336 -374 -383 -85 -20 -494 -21 -588 -1 -187 40 -339 181
-386 360 -42 158 23 449 143 639 23 36 27 38 61 33 20 -3 84 -10 141 -16z
m2036 -640 c142 -37 246 -94 343 -190 51 -50 152 -184 152 -202 0 -16 -75 -91
-140 -140 -81 -62 -184 -111 -292 -140 -117 -31 -339 -31 -485 0 -239 52 -515
184 -678 325 l-40 35 43 46 c23 25 54 70 69 100 l26 54 156 41 c176 45 330 77
441 91 116 14 312 4 405 -20z"/>
<path d="M1805 2949 c-28 -18 -68 -47 -90 -65 -45 -36 -143 -87 -190 -98 -26
-7 -27 -9 -12 -17 30 -17 154 7 226 44 66 33 114 86 127 140 8 35 -1 34 -61
-4z"/>
<path d="M3255 2943 c39 -94 128 -153 263 -174 93 -15 119 0 43 26 -51 16 -67
27 -220 133 -91 64 -107 67 -86 15z"/>
<path d="M1770 2737 c-52 -34 -75 -82 -75 -152 0 -131 105 -209 211 -159 107
51 114 249 11 313 -46 28 -105 27 -147 -2z"/>
<path d="M3208 2744 c-45 -24 -78 -91 -78 -159 0 -173 183 -240 271 -99 32 52
33 143 3 194 -42 72 -129 101 -196 64z"/>
<path d="M2495 2291 c-47 -12 -70 -27 -109 -73 -52 -60 -47 -72 17 -44 112 50
161 60 219 48 29 -7 73 -26 98 -42 24 -16 46 -27 49 -24 9 9 -84 95 -124 113
-48 23 -109 32 -150 22z"/>
<path d="M2087 1708 c-40 -69 -61 -147 -61 -219 0 -77 21 -121 75 -157 28 -20
43 -23 89 -19 49 4 58 8 95 50 49 54 82 143 91 249 8 84 -1 85 -23 1 -34 -133
-103 -233 -159 -233 -85 0 -109 79 -84 279 6 46 9 85 6 88 -2 3 -15 -15 -29
-39z"/>
<path d="M2985 1733 c20 -53 45 -173 45 -222 0 -65 -15 -100 -51 -120 -59 -33
-116 16 -192 166 -68 135 -78 135 -56 3 33 -206 165 -308 292 -225 52 34 72
134 46 230 -18 66 -70 185 -81 185 -6 0 -7 -8 -3 -17z"/>
</g>
</svg>
